<mxfile host="app.diagrams.net" modified="2022-02-20T04:46:19.453Z" agent="5.0 (Windows)" etag="bqLEOXwhnxmb-3T-gTqR" version="16.6.1" type="github">
  <diagram id="g-Gv6t-8aT0DRsh0b5iK" name="Page-1">
    <mxGraphModel dx="1298" dy="660" grid="1" gridSize="10" guides="1" tooltips="1" connect="1" arrows="1" fold="1" page="1" pageScale="1" pageWidth="850" pageHeight="1100" math="0" shadow="0">
      <root>
        <mxCell id="0" />
        <mxCell id="1" parent="0" />
        <mxCell id="q-GdaB6_eMzgq81kTnWl-22" style="edgeStyle=orthogonalEdgeStyle;rounded=0;orthogonalLoop=1;jettySize=auto;html=1;" edge="1" parent="1" source="q-GdaB6_eMzgq81kTnWl-1" target="q-GdaB6_eMzgq81kTnWl-2">
          <mxGeometry relative="1" as="geometry" />
        </mxCell>
        <mxCell id="q-GdaB6_eMzgq81kTnWl-23" style="edgeStyle=orthogonalEdgeStyle;rounded=0;orthogonalLoop=1;jettySize=auto;html=1;" edge="1" parent="1" source="q-GdaB6_eMzgq81kTnWl-1" target="q-GdaB6_eMzgq81kTnWl-4">
          <mxGeometry relative="1" as="geometry" />
        </mxCell>
        <mxCell id="q-GdaB6_eMzgq81kTnWl-1" value="Mulai" style="ellipse;whiteSpace=wrap;html=1;" vertex="1" parent="1">
          <mxGeometry x="340" width="120" height="60" as="geometry" />
        </mxCell>
        <mxCell id="q-GdaB6_eMzgq81kTnWl-24" style="edgeStyle=orthogonalEdgeStyle;rounded=0;orthogonalLoop=1;jettySize=auto;html=1;entryX=0.5;entryY=0;entryDx=0;entryDy=0;" edge="1" parent="1" source="q-GdaB6_eMzgq81kTnWl-2" target="q-GdaB6_eMzgq81kTnWl-5">
          <mxGeometry relative="1" as="geometry" />
        </mxCell>
        <mxCell id="q-GdaB6_eMzgq81kTnWl-2" value="&lt;div&gt;Pra persiapan kegiatan monitoring:&lt;/div&gt;&lt;ol&gt;&lt;li&gt;&lt;div align=&quot;justify&quot;&gt;Memilih stasiun pasut yang akan dimonitoring&lt;/div&gt;&lt;/li&gt;&lt;li&gt;&lt;div align=&quot;justify&quot;&gt;Menentukan rentan waktu kegiatan monitoring di setiap stasiun pasut&lt;/div&gt;&lt;/li&gt;&lt;/ol&gt;" style="rounded=0;whiteSpace=wrap;html=1;" vertex="1" parent="1">
          <mxGeometry x="100" y="110" width="260" height="110" as="geometry" />
        </mxCell>
        <mxCell id="q-GdaB6_eMzgq81kTnWl-25" style="edgeStyle=orthogonalEdgeStyle;rounded=0;orthogonalLoop=1;jettySize=auto;html=1;" edge="1" parent="1" source="q-GdaB6_eMzgq81kTnWl-4" target="q-GdaB6_eMzgq81kTnWl-6">
          <mxGeometry relative="1" as="geometry" />
        </mxCell>
        <mxCell id="q-GdaB6_eMzgq81kTnWl-4" value="&lt;div&gt;Persiapan monitoring: &lt;br&gt;&lt;/div&gt;&lt;div align=&quot;justify&quot;&gt;&lt;ol&gt;&lt;li&gt;Persiapan perangkat keras&lt;/li&gt;&lt;li&gt;persiapan perangkat lunak&lt;br&gt;&lt;/li&gt;&lt;/ol&gt;&lt;/div&gt;" style="rounded=0;whiteSpace=wrap;html=1;" vertex="1" parent="1">
          <mxGeometry x="450" y="110" width="225" height="110" as="geometry" />
        </mxCell>
        <mxCell id="q-GdaB6_eMzgq81kTnWl-9" style="edgeStyle=orthogonalEdgeStyle;rounded=0;orthogonalLoop=1;jettySize=auto;html=1;exitX=0.5;exitY=1;exitDx=0;exitDy=0;entryX=0;entryY=0.5;entryDx=0;entryDy=0;" edge="1" parent="1" source="q-GdaB6_eMzgq81kTnWl-5" target="q-GdaB6_eMzgq81kTnWl-7">
          <mxGeometry relative="1" as="geometry" />
        </mxCell>
        <mxCell id="q-GdaB6_eMzgq81kTnWl-12" style="edgeStyle=orthogonalEdgeStyle;rounded=0;orthogonalLoop=1;jettySize=auto;html=1;entryX=-0.001;entryY=0.449;entryDx=0;entryDy=0;entryPerimeter=0;exitX=0;exitY=0.5;exitDx=0;exitDy=0;" edge="1" parent="1" source="q-GdaB6_eMzgq81kTnWl-5" target="q-GdaB6_eMzgq81kTnWl-2">
          <mxGeometry relative="1" as="geometry">
            <Array as="points">
              <mxPoint x="70" y="320" />
              <mxPoint x="70" y="159" />
            </Array>
          </mxGeometry>
        </mxCell>
        <mxCell id="q-GdaB6_eMzgq81kTnWl-5" value="&lt;div&gt;apakah pra persiapan &lt;br&gt;&lt;/div&gt;&lt;div&gt;sudah dilakukan?&lt;/div&gt;" style="rhombus;whiteSpace=wrap;html=1;" vertex="1" parent="1">
          <mxGeometry x="160" y="260" width="140" height="120" as="geometry" />
        </mxCell>
        <mxCell id="q-GdaB6_eMzgq81kTnWl-11" style="edgeStyle=orthogonalEdgeStyle;rounded=0;orthogonalLoop=1;jettySize=auto;html=1;entryX=1;entryY=0.5;entryDx=0;entryDy=0;exitX=0.5;exitY=1;exitDx=0;exitDy=0;" edge="1" parent="1" source="q-GdaB6_eMzgq81kTnWl-6" target="q-GdaB6_eMzgq81kTnWl-7">
          <mxGeometry relative="1" as="geometry" />
        </mxCell>
        <mxCell id="q-GdaB6_eMzgq81kTnWl-13" style="edgeStyle=orthogonalEdgeStyle;rounded=0;orthogonalLoop=1;jettySize=auto;html=1;entryX=1;entryY=0.5;entryDx=0;entryDy=0;exitX=1;exitY=0.5;exitDx=0;exitDy=0;" edge="1" parent="1" source="q-GdaB6_eMzgq81kTnWl-6" target="q-GdaB6_eMzgq81kTnWl-4">
          <mxGeometry relative="1" as="geometry">
            <Array as="points">
              <mxPoint x="700" y="310" />
              <mxPoint x="700" y="165" />
            </Array>
          </mxGeometry>
        </mxCell>
        <mxCell id="q-GdaB6_eMzgq81kTnWl-6" value="&lt;div&gt;apakah persiapan &lt;br&gt;&lt;/div&gt;&lt;div&gt;sudah dilakukan?&lt;/div&gt;" style="rhombus;whiteSpace=wrap;html=1;" vertex="1" parent="1">
          <mxGeometry x="492.5" y="250" width="140" height="120" as="geometry" />
        </mxCell>
        <mxCell id="q-GdaB6_eMzgq81kTnWl-19" style="edgeStyle=orthogonalEdgeStyle;rounded=0;orthogonalLoop=1;jettySize=auto;html=1;entryX=0.5;entryY=0;entryDx=0;entryDy=0;" edge="1" parent="1" source="q-GdaB6_eMzgq81kTnWl-7" target="q-GdaB6_eMzgq81kTnWl-18">
          <mxGeometry relative="1" as="geometry" />
        </mxCell>
        <mxCell id="q-GdaB6_eMzgq81kTnWl-7" value="Pelaksanaan Monitoring" style="rounded=0;whiteSpace=wrap;html=1;" vertex="1" parent="1">
          <mxGeometry x="365" y="420" width="120" height="60" as="geometry" />
        </mxCell>
        <mxCell id="q-GdaB6_eMzgq81kTnWl-14" value="tidak" style="text;html=1;strokeColor=none;fillColor=none;align=center;verticalAlign=middle;whiteSpace=wrap;rounded=0;" vertex="1" parent="1">
          <mxGeometry x="60" y="290" width="60" height="30" as="geometry" />
        </mxCell>
        <mxCell id="q-GdaB6_eMzgq81kTnWl-15" value="ya" style="text;html=1;strokeColor=none;fillColor=none;align=center;verticalAlign=middle;whiteSpace=wrap;rounded=0;" vertex="1" parent="1">
          <mxGeometry x="200" y="390" width="60" height="30" as="geometry" />
        </mxCell>
        <mxCell id="q-GdaB6_eMzgq81kTnWl-16" value="tidak" style="text;html=1;strokeColor=none;fillColor=none;align=center;verticalAlign=middle;whiteSpace=wrap;rounded=0;" vertex="1" parent="1">
          <mxGeometry x="650" y="280" width="60" height="30" as="geometry" />
        </mxCell>
        <mxCell id="q-GdaB6_eMzgq81kTnWl-17" value="ya" style="text;html=1;strokeColor=none;fillColor=none;align=center;verticalAlign=middle;whiteSpace=wrap;rounded=0;" vertex="1" parent="1">
          <mxGeometry x="570" y="390" width="60" height="30" as="geometry" />
        </mxCell>
        <mxCell id="q-GdaB6_eMzgq81kTnWl-21" style="edgeStyle=orthogonalEdgeStyle;rounded=0;orthogonalLoop=1;jettySize=auto;html=1;" edge="1" parent="1" source="q-GdaB6_eMzgq81kTnWl-18" target="q-GdaB6_eMzgq81kTnWl-20">
          <mxGeometry relative="1" as="geometry" />
        </mxCell>
        <mxCell id="q-GdaB6_eMzgq81kTnWl-18" value="&lt;div&gt;Pencatatan hasil monitoring: &lt;br&gt;&lt;/div&gt;&lt;div align=&quot;justify&quot;&gt;&lt;ol&gt;&lt;li&gt;pencatatan data termonitoring&lt;br&gt;&lt;/li&gt;&lt;li&gt;Pencatatan permasalahan&lt;br&gt;&lt;/li&gt;&lt;/ol&gt;&lt;/div&gt;" style="rounded=0;whiteSpace=wrap;html=1;" vertex="1" parent="1">
          <mxGeometry x="313" y="530" width="225" height="100" as="geometry" />
        </mxCell>
        <mxCell id="q-GdaB6_eMzgq81kTnWl-20" value="Selesai" style="ellipse;whiteSpace=wrap;html=1;" vertex="1" parent="1">
          <mxGeometry x="365.5" y="660" width="120" height="50" as="geometry" />
        </mxCell>
      </root>
    </mxGraphModel>
  </diagram>
</mxfile>
